<?xml version="1.0" encoding="iso-8859-1"?>
<!-- Generator: Adobe Illustrator 19.0.0, SVG Export Plug-In . SVG Version: 6.00 Build 0)  -->
<svg version="1.1" id="Capa_1" xmlns="http://www.w3.org/2000/svg" xmlns:xlink="http://www.w3.org/1999/xlink" x="0px" y="0px"
	 viewBox="0 0 511.999 511.999" style="enable-background:new 0 0 511.999 511.999;" xml:space="preserve">
<path style="fill:#E2E0E0;" d="M256.001,0.073C114.635,0.073,0.037,114.671,0.037,256.037S114.635,511.999,256,511.999
	s255.963-114.598,255.963-255.963S397.365,0.073,256.001,0.073z M256.001,303.929c-26.454,0-47.899-21.445-47.899-47.899
	s21.445-47.899,47.899-47.899s47.899,21.445,47.899,47.899S282.455,303.929,256.001,303.929z"/>
<path style="fill:#808080;" d="M311.874,218.016c10.89,16.006,14.851,36.543,9.111,56.606
	c-9.889,34.562-44.943,55.103-79.574,47.417c-1.335-0.292-2.668-0.635-4.001-1.017c-14.701-4.207-26.87-12.977-35.402-24.322
	c-12.298-16.357-17.058-38.07-10.993-59.265c10.187-35.601,47.095-56.326,82.729-46.616c0.287,0.069,0.57,0.15,0.854,0.231
	C290.418,195.577,303.301,205.382,311.874,218.016z M281.982,263.462c4.105-14.346-4.198-29.306-18.544-33.41
	c-14.359-4.108-29.317,4.194-33.423,18.542c-4.105,14.346,4.198,29.306,18.557,33.414
	C262.918,286.113,277.877,277.809,281.982,263.462z"/>
<path style="fill:#F4F1EE;" d="M273.742,190.819c0.286,0.069,0.57,0.15,0.854,0.231c15.823,4.527,28.705,14.332,37.277,26.966
	L419.553,59.058c-11.907-9.909-24.808-18.8-38.613-26.492c-16.897-9.434-35.125-17.075-54.525-22.627
	c-27.973-8.004-56.194-11.033-83.714-9.593l0.028,0.66L13.82,338.945c15.383,44.82,43.054,84.956,80.154,115.307l-0.004,0.012
	c12.306,10.075,25.663,19.07,39.957,26.8l1.045-1.911l106.439-157.117c-1.335-0.292-2.668-0.635-4.001-1.017
	c-14.701-4.207-26.87-12.977-35.401-24.322c-12.298-16.357-17.058-38.07-10.995-59.265
	C201.199,201.833,238.107,181.108,273.742,190.819z"/>
<g>
</g>
<g>
</g>
<g>
</g>
<g>
</g>
<g>
</g>
<g>
</g>
<g>
</g>
<g>
</g>
<g>
</g>
<g>
</g>
<g>
</g>
<g>
</g>
<g>
</g>
<g>
</g>
<g>
</g>
</svg>
