<?xml version="1.0" encoding="utf-8"?>
<!-- Generator: Adobe Illustrator 22.0.0, SVG Export Plug-In . SVG Version: 6.00 Build 0)  -->
<svg version="1.1" id="Capa_1" xmlns="http://www.w3.org/2000/svg" xmlns:xlink="http://www.w3.org/1999/xlink" x="0px" y="0px"
	 viewBox="0 0 320 320" style="enable-background:new 0 0 320 320;" xml:space="preserve">
<style type="text/css">
	.st0{fill:#FAF298;}
	.st1{fill:#5F717F;}
</style>
<g>
	<path class="st0" d="M228.5,213.7l-63.2-43.6c-1.2-0.8-2.4-2-3.2-3.2c-3.6-5.2-2.4-12.4,2.8-16l63.6-43.6c10-6.8,62.4-45.6,70-45.6
		c6.4,0,11.6,5.2,11.6,11.6v87.2v87.2l0,0c0,2.4-0.8,4.4-2,6.4c-3.6,5.2-10.8,6.4-16,2.8L228.5,213.7z"/>
	<path class="st0" d="M78.5,213.7l-63.2-43.6c-1.2-0.8-2.4-2-3.2-3.2c-3.6-5.2-2.4-12.4,2.8-16l63.6-43.6l62.4-43.2
		c2-1.6,4.4-2.4,7.2-2.4c6.4,0,11.6,5.2,11.6,11.6v87.2v87.2l0,0c0,2.4-0.8,4.4-2,6.4c-3.6,5.2-10.8,6.4-16,2.8L78.5,213.7z"/>
</g>
<path class="st1" d="M4,172.3c0.8,1.2,1.6,2.4,2.8,3.2c1.2,0.8,2,2,3.2,2.8l0,0l62.4,43.2l63.6,43.6c4.8,3.6,10.8,4.4,16.4,3.6
	c5.6-0.8,10.4-4,14-9.2c1.2-2,2.4-4,2.8-6c0.4-1.6,0.8-3.2,0.8-4.8c0-0.4,0-1.2,0-1.6v-62.4l52.8,36.4l63.2,44l0,0
	c4.8,3.6,10.8,4.4,16.4,3.6c5.6-0.8,10.4-4,14-8.8l0,0c1.2-2,2.4-4,2.8-6c0.4-1.6,0.8-3.2,0.8-4.8c0-0.4,0-1.2,0-1.6v-87.6V72.7
	c0-5.6-2-10.8-5.6-14.4c-0.4-0.4-0.4-0.4-0.8-0.8c-4-4-9.2-6.4-15.2-6.4c-9.2,0-46.8,26.8-66.4,40.8c-4,2.8-7.2,5.2-9.2,6.8
	L170,135.1V72.7c0-6-2.4-11.6-6.4-15.2l0,0c-4-4-9.2-6.4-15.2-6.4c-2.4,0-4.8,0.4-7.2,1.2c-2.4,0.8-4.4,2-6,3.2L72.9,98.3L9.7,141.9
	l0,0c-4.8,3.6-8,8.4-9.2,14C-0.7,161.5,0.4,167.5,4,172.3L4,172.3z M171.2,159.1l63.2-44c1.6-1.2,5.2-3.6,9.6-6.8
	c17.6-12.8,51.6-37.2,54.4-37.2c0.4,0,0.8,0,0.8,0.4l0,0c0,0,0,0.4,0,0.8v87.6v86.4c0,0.4,0,0.4,0,0.8v0.4l0,0l0,0
	c0,0,0,0.4-0.4,0.4c0,0-0.4,0.4-0.8,0.4s-0.4,0-0.8,0c-0.4-0.4-0.8-0.4-0.8-0.4L234,204.7l-63.2-43.6l0,0l0,0l0,0l0,0
	c0-0.4-0.4-0.8,0-0.8C170.8,159.5,170.8,159.1,171.2,159.1z M20.8,159.1L20.8,159.1l63.2-44l62.8-42.8c0.4,0,0.4-0.4,0.8-0.4h0.4
	h0.4c0.4,0,0.8,0,0.8,0.4c0.4,0.4,0.4,0.4,0.4,0.8v86.8v86.4c0,0.4,0,0.4,0,0.8v0.4l0,0v0.4c0,0.4-0.4,0.4-0.8,0.4s-0.8,0-0.8,0
	l-64-43.6l-63.2-43.6l0,0l0,0l0,0l0,0l0,0c0-0.4-0.4-0.4,0-0.8C20.4,159.5,20.8,159.1,20.8,159.1z"/>
</svg>
