<?xml version="1.0" encoding="utf-8"?>
<!-- Generator: Adobe Illustrator 22.0.0, SVG Export Plug-In . SVG Version: 6.00 Build 0)  -->
<svg version="1.1" id="Capa_1" xmlns="http://www.w3.org/2000/svg" xmlns:xlink="http://www.w3.org/1999/xlink" x="0px" y="0px"
	 viewBox="0 0 336.4 336.4" style="enable-background:new 0 0 336.4 336.4;" xml:space="preserve">
<style type="text/css">
	.st0{fill:#9DA7B0;}
	.st1{fill:#5F717F;}
</style>
<path class="st0" d="M44.5,10.4h247.9c9.6,0,17.2,6.4,17.2,14.4V312c0,8-7.7,14.4-17.2,14.4H44.5c-9.6,0-17.2-6.4-17.2-14.4V24.8
	C27.3,16.8,34.9,10.4,44.5,10.4z"/>
<path class="st1" d="M0,312c0,6.8,3.7,12.8,9.4,17.2l0,0l0,0c5.8,4.4,14.2,7.2,22.6,7.2h271.8c8.9,0,16.8-2.8,23.1-7.2
	c6.3-4.4,9.4-10.8,9.4-17.6V24.8c0-6.8-3.7-12.8-9.4-17.6S312.8,0,303.9,0H32.5C23.6,0,15.7,2.8,9.4,7.2l0,0C3.7,11.6,0,18,0,24.8
	V312z M27.3,24.8c0-1.2,0.5-2,1.6-2.8l0,0c1-0.8,2.1-1.2,3.7-1.2h271.8c1.6,0,2.6,0.4,3.7,1.2c1,0.8,1.6,1.6,1.6,2.8V312
	c0,1.2-0.5,2-1.6,2.8c-1,0.8-2.1,1.2-3.7,1.2H32.5c-1.6,0-2.6-0.4-3.7-1.2l0,0c-1-0.8-1.6-1.6-1.6-2.8C27.3,312,27.3,24.8,27.3,24.8
	z"/>
</svg>
